<?xml version="1.0" encoding="UTF-8"?>
<!DOCTYPE svg PUBLIC "-//W3C//DTD SVG 1.1//EN" "http://www.w3.org/Graphics/SVG/1.1/DTD/svg11.dtd">
<svg xmlns="http://www.w3.org/2000/svg" version="1.1" width="168px" height="27px" style="shape-rendering:geometricPrecision; text-rendering:geometricPrecision; image-rendering:optimizeQuality; fill-rule:evenodd; clip-rule:evenodd" xmlns:xlink="http://www.w3.org/1999/xlink">
<g><path style="opacity:0.125" fill="#189eff" d="M 11.5,0.5 C 12.8333,1.16667 12.8333,1.16667 11.5,0.5 Z"/></g>
<g><path style="opacity:0.753" fill="#6355fc" d="M 21.5,1.5 C 21.5943,4.0685 22.9276,5.5685 25.5,6C 23.9371,6.75891 22.9371,7.92558 22.5,9.5C 21.8485,10.0906 21.1818,10.7573 20.5,11.5C 19.0613,9.63968 17.3947,7.97302 15.5,6.5C 16.9308,4.0623 18.9308,2.39564 21.5,1.5 Z"/></g>
<g><path style="opacity:0.788" fill="#4e2bff" d="M 26.5,15.5 C 26.5674,14.0413 26.2341,12.7079 25.5,11.5C 26.3382,11.1583 26.6716,10.4916 26.5,9.5C 26.5,9.16667 26.5,8.83333 26.5,8.5C 27.1667,8.5 27.5,8.16667 27.5,7.5C 27.5,7.16667 27.5,6.83333 27.5,6.5C 33.4952,2.02334 38.8285,2.69001 43.5,8.5C 42.6667,8.83333 41.8333,9.16667 41,9.5C 33.9889,5.66669 30.6556,7.66669 31,15.5C 33.937,19.412 36.7703,19.412 39.5,15.5C 37.604,14.5344 35.604,14.2011 33.5,14.5C 33.5,13.5 33.5,12.5 33.5,11.5C 37.1667,11.5 40.8333,11.5 44.5,11.5C 43.6833,20.4053 39.0166,23.572 30.5,21C 28.5359,19.549 27.2026,17.7157 26.5,15.5 Z"/></g>
<g><path style="opacity:0.686" fill="#4e2bff" d="M 45.5,3.5 C 47.1667,3.5 48.8333,3.5 50.5,3.5C 50.5,9.5 50.5,15.5 50.5,21.5C 48.8333,21.5 47.1667,21.5 45.5,21.5C 45.5,15.5 45.5,9.5 45.5,3.5 Z"/></g>
<g><path style="opacity:0.77" fill="#4e2bff" d="M 52.5,3.5 C 54.288,3.21478 55.9547,3.54811 57.5,4.5C 59.8635,7.69853 62.0302,11.0319 64,14.5C 64.4986,10.8484 64.6653,7.18174 64.5,3.5C 65.8333,3.5 67.1667,3.5 68.5,3.5C 68.5,9.5 68.5,15.5 68.5,21.5C 66.8008,21.6602 65.1341,21.4935 63.5,21C 61.5421,18.2518 59.7088,15.4185 58,12.5C 57.502,15.4816 57.3354,18.4816 57.5,21.5C 55.8333,21.5 54.1667,21.5 52.5,21.5C 52.5,15.5 52.5,9.5 52.5,3.5 Z"/></g>
<g><path style="opacity:0.779" fill="#4e2bff" d="M 75.5,3.5 C 86.3786,3.20394 90.2119,8.20394 87,18.5C 78.4503,24.5943 72.617,22.5943 69.5,12.5C 70.2863,8.56746 72.2863,5.56746 75.5,3.5 Z M 76.5,7.5 C 83.1117,7.40605 85.2784,10.406 83,16.5C 80.0854,19.07 77.4187,18.7366 75,15.5C 74.1093,12.5024 74.6093,9.83574 76.5,7.5 Z"/></g>
<g><path style="opacity:0.754" fill="#4e2bff" d="M 92.5,3.5 C 95.6492,3.21138 98.6492,3.71138 101.5,5C 102.38,6.35613 102.714,7.85613 102.5,9.5C 100.046,9.67949 97.8792,9.01282 96,7.5C 95.5,7.83333 95,8.16667 94.5,8.5C 96.0031,10.4216 98.0031,11.5883 100.5,12C 104.778,16.2297 104.112,19.563 98.5,22C 94.2783,22.5886 91.2783,20.922 89.5,17C 92.1396,16.161 94.4729,16.661 96.5,18.5C 97.5,18.1667 98.1667,17.5 98.5,16.5C 96.5839,14.6827 94.2506,13.516 91.5,13C 88.9076,9.5828 89.241,6.41614 92.5,3.5 Z"/></g>
<g><path style="opacity:0.795" fill="#4e2bff" d="M 105.5,3.5 C 106.833,3.5 108.167,3.5 109.5,3.5C 109.337,5.85684 109.503,8.19018 110,10.5C 111.953,5.95456 115.119,3.95456 119.5,4.5C 117.885,7.44951 115.885,10.1162 113.5,12.5C 115.267,15.7698 117.6,18.6032 120.5,21C 115.438,22.2914 111.938,20.4581 110,15.5C 109.505,17.4727 109.338,19.4727 109.5,21.5C 108.167,21.5 106.833,21.5 105.5,21.5C 105.5,15.5 105.5,9.5 105.5,3.5 Z"/></g>
<g><path style="opacity:0.779" fill="#4e2bff" d="M 126.5,3.5 C 137.379,3.20394 141.212,8.20394 138,18.5C 129.45,24.5943 123.617,22.5943 120.5,12.5C 121.286,8.56746 123.286,5.56746 126.5,3.5 Z M 127.5,7.5 C 134.112,7.40605 136.278,10.406 134,16.5C 131.085,19.07 128.419,18.7366 126,15.5C 125.109,12.5024 125.609,9.83574 127.5,7.5 Z"/></g>
<g><path style="opacity:0.809" fill="#4e2bff" d="M 141.5,3.5 C 144.518,3.33537 147.518,3.50204 150.5,4C 154.213,5.69118 155.379,8.52452 154,12.5C 151.695,14.9305 148.862,15.9305 145.5,15.5C 145.5,17.5 145.5,19.5 145.5,21.5C 144.167,21.5 142.833,21.5 141.5,21.5C 141.5,15.5 141.5,9.5 141.5,3.5 Z M 145.5,7.5 C 147.665,7.11589 149.332,7.78256 150.5,9.5C 149.332,11.2174 147.665,11.8841 145.5,11.5C 145.5,10.1667 145.5,8.83333 145.5,7.5 Z"/></g>
<g><path style="opacity:0.782" fill="#4e2bff" d="M 167.5,3.5 C 167.5,4.83333 167.5,6.16667 167.5,7.5C 165.167,7.5 162.833,7.5 160.5,7.5C 160.5,8.5 160.5,9.5 160.5,10.5C 162.5,10.5 164.5,10.5 166.5,10.5C 166.5,11.8333 166.5,13.1667 166.5,14.5C 164.5,14.5 162.5,14.5 160.5,14.5C 160.5,15.8333 160.5,17.1667 160.5,18.5C 162.833,18.5 165.167,18.5 167.5,18.5C 167.5,19.5 167.5,20.5 167.5,21.5C 163.833,21.5 160.167,21.5 156.5,21.5C 156.5,15.5 156.5,9.5 156.5,3.5C 160.167,3.5 163.833,3.5 167.5,3.5 Z"/></g>
<g><path style="opacity:0.02" fill="#0f9bff" d="M 4.5,5.5 C 4.89657,4.47498 5.56323,4.30831 6.5,5C 5.90558,5.46434 5.23891,5.63101 4.5,5.5 Z"/></g>
<g><path style="opacity:0.18" fill="#483e64" d="M 21.5,1.5 C 25.3103,0.975964 27.3103,2.64263 27.5,6.5C 27.5,6.83333 27.5,7.16667 27.5,7.5C 26.8333,7.5 26.5,7.83333 26.5,8.5C 26.5,8.83333 26.5,9.16667 26.5,9.5C 24.965,10.3543 23.6316,10.3543 22.5,9.5C 22.9371,7.92558 23.9371,6.75891 25.5,6C 22.9276,5.5685 21.5943,4.0685 21.5,1.5 Z"/></g>
<g><path style="opacity:0.765" fill="#295888" d="M 4.5,9.5 C 3.56366,10.9744 2.23033,11.9744 0.5,12.5C 0.5,11.8333 0.166667,11.5 -0.5,11.5C -0.5,11.1667 -0.5,10.8333 -0.5,10.5C 0.935043,8.59887 2.60171,8.26553 4.5,9.5 Z"/></g>
<g><path style="opacity:0.957" fill="#6557fe" d="M 18.5,12.5 C 18.8333,13.1667 19.1667,13.8333 19.5,14.5C 17.6115,15.604 15.9448,16.9373 14.5,18.5C 13.8333,18.5 13.5,18.8333 13.5,19.5C 12.5266,19.9867 11.5266,20.4867 10.5,21C 10.7284,21.3988 11.0618,21.5654 11.5,21.5C 10.779,23.3818 9.77896,23.7152 8.5,22.5C 9.55728,21.794 9.22394,21.4607 7.5,21.5C 7.16667,20.5 6.5,19.8333 5.5,19.5C 5.5,18.8333 5.16667,18.5 4.5,18.5C 2.53629,16.8726 1.20296,14.8726 0.5,12.5C 2.23033,11.9744 3.56366,10.9744 4.5,9.5C 6.33864,7.80319 8.17197,6.13652 10,4.5C 12.0254,8.02538 14.8587,10.692 18.5,12.5 Z"/></g>
<g><path style="opacity:0.243" fill="#1aa0ff" d="M 0.5,16.5 C 1.52502,16.8966 1.69169,17.5632 1,18.5C 0.535656,17.9056 0.368989,17.2389 0.5,16.5 Z"/></g>
<g><path style="opacity:0.814" fill="#4e32ff" d="M 21.5,17.5 C 22.6772,19.568 24.0105,20.7347 25.5,21C 24.3498,22.981 23.0165,24.8143 21.5,26.5C 20.8333,26.5 20.1667,26.5 19.5,26.5C 17.7484,24.7541 16.4151,22.7541 15.5,20.5C 15.8333,20.5 16.1667,20.5 16.5,20.5C 17.1667,20.5 17.5,20.1667 17.5,19.5C 18.8333,18.8333 20.1667,18.1667 21.5,17.5 Z"/></g>
<g><path style="opacity:0.8" fill="#2b86ff" d="M 25.5,11.5 C 26.2341,12.7079 26.5674,14.0413 26.5,15.5C 24.8333,16.1667 23.1667,16.8333 21.5,17.5C 20.1667,18.1667 18.8333,18.8333 17.5,19.5C 16.8333,19.5 16.5,19.8333 16.5,20.5C 16.1667,20.5 15.8333,20.5 15.5,20.5C 14.2921,21.2341 12.9587,21.5674 11.5,21.5C 11.0618,21.5654 10.7284,21.3988 10.5,21C 11.5266,20.4867 12.5266,19.9867 13.5,19.5C 14.1667,19.5 14.5,19.1667 14.5,18.5C 18.1867,17.824 21.5201,16.324 24.5,14C 22.735,13.3603 21.0683,13.5269 19.5,14.5C 19.1667,13.8333 18.8333,13.1667 18.5,12.5C 20.861,12.3259 23.1944,11.9926 25.5,11.5 Z"/></g>
<g><path style="opacity:0.722" fill="#288aff" d="M 4.5,18.5 C 5.16667,18.5 5.5,18.8333 5.5,19.5C 4.02668,20.072 2.69335,20.9054 1.5,22C 3.48838,22.1805 5.48838,22.0138 7.5,21.5C 9.22394,21.4607 9.55728,21.794 8.5,22.5C 5.60853,23.4025 2.60853,23.7359 -0.5,23.5C -0.5,22.8333 -0.5,22.1667 -0.5,21.5C 0.922032,20.075 2.5887,19.075 4.5,18.5 Z"/></g>
</svg>
